<?xml version="1.0" encoding="utf-8"?>
<!-- Generator: Adobe Illustrator 27.5.0, SVG Export Plug-In . SVG Version: 6.00 Build 0)  -->
<svg version="1.1" xmlns="http://www.w3.org/2000/svg" xmlns:xlink="http://www.w3.org/1999/xlink" x="0px" y="0px"
	 viewBox="0 0 1100 800" style="enable-background:new 0 0 1100 800;" xml:space="preserve">
<g id="Background">
	<rect style="fill:#FFFFFF;" width="1100" height="800"/>
</g>
<g id="Shadow">
	<path style="opacity:0.04;fill:#2D2A27;" d="M289.917,618.596c-18.041,0.368-36.081,0.648-54.115,0.717
		c-32.139,0.123-74.264-5.996-98.252,17.303c-12.078,11.731-8.104,35.125,11.056,39.273c5.422,1.174,11.259,1.045,16.345,3.043
		c5.087,1.998,9.117,7.439,6.294,11.594c-1.443,2.124-4.221,3.263-6.884,4.155c-16.842,5.644-35.51,6.36-52.266,12.191
		c-39.812,13.857-32.938,41.708,3.255,50.698c32.548,8.084,68.744,6.966,102.3,7.513c196.392,3.203,393.313,7.008,588.615-3.791
		c42.12-2.329,83.995-5.27,125.934-8.012c19.193-1.253,43.215-4.522,43.291-11.848c0.053-5.101-12.618-8.905-25.107-10.896
		c-21.872-3.487-50.426-6.52-46.292-17.927c1.508-4.161,8.627-7.979,18.516-9.93c7.638-1.507,16.423-1.905,24.704-2.812
		s16.77-2.572,20.252-5.54c9.375-7.993-14.236-12.749-30.855-13.479c-19.906-0.874-36.136-6.491-29.274-14.967
		c4.78-5.904,20.338-9.897,25.069-15.807c1.902-2.377,1.9-4.933,0.635-7.369c-12.634-24.337-78.639-22.25-103.237-24.072
		c-45.507-3.371-91.217-4.014-136.867-4.316c-103.555-0.684-207.113,0.458-310.647,2.234
		C351.576,617.082,320.745,617.967,289.917,618.596z"/>
</g>
<g id="Object">
	<g>
		<polygon style="fill:#EDD3B8;" points="722.645,312.326 725.322,297.139 731.862,298 732.141,307.716 735.615,307.778 
			731.741,320.494 724.821,320.517 		"/>
		<polygon style="fill:#BCBEC0;" points="771.7,361.044 737.837,361.044 733.847,317.753 722.756,318.357 708.99,379.857 
			755.396,419.365 		"/>
	</g>
	<g>
		<path style="fill:#3B455A;" d="M194.623,380.032c0.462,74.597,1.093,129.093,3.142,193.231
			c261.921-3.474,432.107-0.363,684.221-2.605c1.147-70.708-0.207-114.366-0.662-190.421
			C666.926,385.608,202.152,374.71,194.623,380.032z"/>
		<polygon style="fill:#305399;" points="918.77,605.209 194.545,605.209 194.545,627.234 228.878,627.234 228.878,681 250.255,681 
			250.255,627.234 848.809,627.234 848.809,673.875 870.186,673.875 870.186,627.234 918.77,627.234 		"/>
		<path style="fill:#EAF3F9;" d="M207.982,539.051c-12.005,9.991-23.894,16.245-31.326,24.969
			c265.055-2.632,459.728-3.819,714.85-6.212c-13.823-9.279-4.589-8.348-18.828-22.587
			C655.692,537.699,215.646,538.31,207.982,539.051z"/>
		<path style="fill:#ABC1CE;" d="M197.993,561.227c-0.078,20.424,0.171,35.343,1.823,52.891
			c272.736-2.872,449.91-3.267,712.427-5.73c1.725-19.371,0.642-31.317,0.739-52.14
			C689.711,559.291,205.873,559.714,197.993,561.227z"/>
		<path style="fill:#3B455A;" d="M179.959,631.506c-16.652,0-27.161-21.96-27.91-39.418c-1.525-35.53-3.046-71.227,0.022-106.617
			c0.38-4.388,0.856-8.869,2.52-12.816c10.922-25.908,48.842-13.091,48.842,14.867c0,0.11,0,116.198,0,116.198
			C203.433,619.066,192.923,631.506,179.959,631.506z"/>
		<path style="fill:#3B455A;" d="M904.805,631.506c-16.652,0-27.161-21.96-27.91-39.418c-1.524-35.53-3.046-71.227,0.022-106.617
			c0.38-4.388,0.856-8.869,2.52-12.816c10.922-25.908,48.842-13.091,48.842,14.867c0,0.11,0,116.198,0,116.198
			C928.279,619.066,917.769,631.506,904.805,631.506z"/>
	</g>
	<g>
		<g>
			<g>
				<polygon style="fill:#7DB5DB;" points="303.287,354.2 342.8,369.437 355.833,313.493 369.681,316.865 370.698,395.25 
					318.946,398.046 				"/>
			</g>
			<polygon style="fill:#EDD3B8;" points="358.294,317.003 367.708,317.817 370.797,302.672 363.017,296.664 355.063,299.533 
				358.034,306.31 356.269,306.157 354.656,304.24 352.738,305.852 			"/>
		</g>
		<g>
			<g>
				<polygon style="fill:#7DB5DB;" points="253.666,352.367 203.361,350.303 210.667,293.328 196.513,291.656 168.21,364.76 
					231.077,407.635 				"/>
			</g>
			<polygon style="fill:#EDD3B8;" points="207.136,295.758 198.029,293.236 200.42,277.965 209.806,275.049 216.26,280.513 
				211.111,285.828 212.819,286.301 214.999,285.066 216.234,287.246 			"/>
		</g>
		<g>
			<path style="fill:#EDD3B8;" d="M310.177,303.783c-11.603,3.926-25.171-2.929-36.189,2.489
				c-7.164,3.523-11.404,11.78-11.759,19.943c-0.165,3.805,0.446,7.747,2.406,10.981c1.272,2.099,3.063,3.825,5.018,5.264
				c2.615,1.924,5.565,3.321,8.662,4.18c-0.864,2.768-1.978,5.458-3.327,8.026c5.994,0.679,11.988,1.359,17.983,2.039
				c0.396-3.446,0.791-6.892,1.186-10.337c1.617-0.515,3.191-1.17,4.685-2c9.035-5.015,14.873-15.571,14.449-26.129
				C313.094,313.292,311.647,308.498,310.177,303.783z"/>
		</g>
		<path style="fill:#3B455A;" d="M281.751,307.277c7.807-1.336,15.495-0.509,24.545,1.292c1.225,0.244,2.523,0.548,3.389,1.448
			c0.983,1.022,1.165,2.551,1.296,3.964c0.536,5.797,1.073,11.594,1.609,17.391c-0.096-1.034,5.667-7.082,6.464-8.555
			c2.251-4.162,3.272-8.909,5.214-13.02c1.857-3.931,3.953-6.418,4.105-11.1c0.147-4.522-0.987-8.979-2.214-13.334
			c-1.016-3.603-2.278-7.444-5.301-9.652c-2.883-2.106-6.723-2.242-10.29-2.092c-13.753,0.581-27.347,4.302-39.533,10.693
			c-4.548,2.385-12.536,5.825-14.562,10.682c-1.329,3.186-0.283,9.417-0.435,12.982l-2.374,23.622l14.853,8.272l1.054-28.731
			C273.792,309.191,277.787,307.955,281.751,307.277z"/>
		<path style="fill:#7DB5DB;" d="M304.713,353.667l-41.037-3.365c0,0-41.935,5.481-38.889,28.221
			c2.262,16.891,11.098,30.805,4.301,53.563c-18.126,60.689-4.69,114.407-4.69,114.407s56.34-9.98,135.889-0.997L337.11,394.914
			L304.713,353.667z"/>
		<g>
			<polygon style="fill:#3C3A38;" points="258.76,697.448 252.781,720.623 259.316,730.019 269.873,723.755 275.906,703.711 
				271.381,688.679 			"/>
			<polygon style="fill:#3C3A38;" points="306.111,693.063 300.132,716.239 306.667,725.634 317.224,719.371 323.257,699.327 
				318.733,684.294 			"/>
			<path style="fill:#587BC9;" d="M296.702,543.226c-1.862-5.929-4.621-14.87-10.373-17.242
				c-12.094-4.986-25.223-9.272-37.663-5.551c-8.456,2.529-15.999,8.81-20.673,17.216c-3.506,6.305-5.372,13.756-5.404,21.211
				c-0.03,7.13,3.431,13.105,5.082,19.895c10.022,41.235,20.044,82.469,30.066,123.704l17.068-2.505l1.101-126.526
				C282.916,566.339,300.396,554.993,296.702,543.226z"/>
			<path style="fill:#587BC9;" d="M348.689,562.496c0.588-4.468,0.996-8.966,1.108-13.328c0.09-3.492-0.065-7.077-1.235-10.307
				c-1.292-3.567-3.729-6.44-6.339-8.903c-9.221-8.701-21.261-13.008-33.181-9.936c-5.274,1.359-10.244,4.067-14.831,7.277
				c-5.316,3.72-10.312,8.15-14.256,13.651c-0.379,0.529-0.771,1.172-0.633,1.837c0.101,0.487,0.463,0.839,0.802,1.159
				c6.585,6.241,11.734,14.401,14.919,23.447c3.875,11.004,3.794,21.699,4.226,33.329c0.505,13.603,1.01,27.206,1.516,40.809
				c0.7,18.848,1.4,37.696,2.1,56.545l19.271,2.505c3.381-17.347,6.761-34.694,10.142-52.041
				c4.753-24.389,9.506-48.778,14.259-73.168C347.367,571.211,348.114,566.868,348.689,562.496z"/>
		</g>
	</g>
	<g>
		<path style="fill:#F2F2F2;" d="M212.047,245.217l-5.088,35.033l10.205,13.12l54.179,7.869l12.201-12.067
			c1.159-1.359,3.242-1.056,3.967,0.576l8.467,15.069l53.977,7.839l13.516-9.674l5.088-35.033L212.047,245.217z"/>
		<g>
			<path style="fill:#587BC9;" d="M264.236,291.007l-40.026-5.813c-3.22-0.468-5.451-3.457-4.983-6.677l2.836-19.528
				c0.468-3.22,3.457-5.451,6.677-4.983l40.026,5.813c3.22,0.468,5.451,3.457,4.983,6.677l-2.836,19.528
				C270.445,289.244,267.456,291.475,264.236,291.007z"/>
			<path style="fill:#305399;" d="M345.424,302.799l-40.026-5.813c-3.22-0.468-5.451-3.457-4.983-6.677l2.836-19.528
				c0.468-3.22,3.457-5.451,6.677-4.983l40.026,5.813c3.22,0.468,5.451,3.457,4.983,6.677l-2.836,19.528
				C351.634,301.035,348.644,303.266,345.424,302.799z"/>
		</g>
	</g>
	<g>
		<g>
			<polygon style="fill:#3C3A38;" points="485.642,706.197 481.955,711.875 485.907,733.272 493.346,738.102 500.901,733.592 
				500.145,716.66 493.197,701.687 			"/>
			<polygon style="fill:#3C3A38;" points="518.883,706.107 515.196,711.784 519.148,733.182 526.587,738.012 534.142,733.502 
				533.386,716.57 526.438,701.597 			"/>
			<path style="fill:#EDEDED;" d="M426.786,540.705c4.676,6.19,12.995,8.123,20.658,9.217c8.585,1.226,17.243,1.931,25.912,2.112
				c6.14,0.128,12.33-0.012,18.339-1.288c9.548-2.027,18.251-6.826,27.405-10.221c8.097-3.004,16.596-4.916,25.196-5.67
				c2.426-0.213,4.976-0.37,7.039-1.668c4.524-2.848,4.475-9.361,3.886-14.687c-0.839-7.573-2.005-15.805-7.499-21.065
				c-3.891-3.725-9.321-5.291-14.58-6.417c-24.913-5.335-51.254-3.329-75.219,5.249c-9.627,3.446-24.801,8.461-31.55,16.701
				C420.83,519.736,421.764,534.057,426.786,540.705z"/>
			<path style="fill:#EDEDED;" d="M426.81,538.387c-0.946,2.494-1.119,5.586-1.187,10.208l29.004,21.528l26.152,144.566l20.09-0.133
				l11.249-138.383c-1.997-11.57-2.334-25.167-6.242-36.157c-4.637-13.039-25.986-18.716-38.734-18.979
				c-11.059-0.228-22.065,2.914-31.454,8.728C430.512,532.97,428.025,535.187,426.81,538.387z"/>
			<path style="fill:#EDEDED;" d="M549.614,521.339c1.266,2.395,2.336,4.931,3.855,7.31c3.415,5.349,6.786,10.609,9.982,16.215
				c4.478,7.855,8.876,15.757,13.201,23.697l-40.74,148.544l-19.43-1.254c0,0,4.387-144.765,4.387-144.786
				c0.103-3.718-8.189-8.697-10.641-10.627c-6.3-4.96-9.284-7.495-12.8-14.842c-2.742-5.73-3.198-12.545-1.096-18.539
				s6.774-11.069,12.635-13.517c4.546-1.899,9.572-2.22,14.49-2.516c7.115-0.429,14.871-0.683,20.646,3.496
				C546.688,516.391,548.263,518.785,549.614,521.339z"/>
		</g>
		<g>
			<g>
				<path style="fill:#ECD3B8;" d="M483.821,365.757c-5.042,0.426-10.083,0.853-15.125,1.28c-0.783-3.958-1.25-7.979-1.393-12.012
					c-4.395-0.686-9.567-1.978-11.085-6.159c-0.478-1.317-0.501-2.749-0.518-4.15c-0.07-5.792-0.14-11.584-0.211-17.376
					c-0.024-2.003-0.038-4.068,0.71-5.926c1.311-3.262,4.67-5.204,7.966-6.427c8.411-3.119,18.23-2.991,26.023,1.452
					c2.074,1.182,4.033,2.703,5.233,4.767c1.851,3.182,1.635,7.11,1.365,10.781c-0.25,3.389-0.499,6.777-0.749,10.166
					c-0.287,3.897-0.913,8.384-4.236,10.441c-1.764,1.092-4.049,1.292-5.567,2.706C483.556,357.793,484.802,362.231,483.821,365.757
					z"/>
				<path style="fill:#3B455A;" d="M523.608,300.493c0.594-1.56,1.263-3.083,2.057-4.542c1.719-3.16,4.029-6.024,5.257-9.406
					c1.228-3.382,1.093-7.633-1.579-10.042c-1.724-1.555-4.146-2.043-6.455-2.282c-7.61-0.786-15.425,0.513-22.372,3.72
					c-6.616,3.054-12.288,7.133-19.762,5.818c-7.022-1.236-11.581,0.642-17.991,4.364c-6.937,4.027-16.793,6.5-22.823,11.488
					c-2.518,2.083-4.306,4.94-5.553,7.96c-4.319,10.466-1.965,23.357,5.775,31.621c1.736,1.854,3.704,3.478,5.737,5.001
					c4.209,3.151,9.27,7.068,14.352,7.583c-0.684-4.334-7.132-17.204-4.475-21.352c4.217-6.583,16.463-6.828,23.239-6.656
					c7.391,0.189,14.664,4.05,21.914,3.82c5.217-0.166,11.232-3.854,15.06-7.276C520.711,316.086,521.44,306.186,523.608,300.493z"
					/>
			</g>
			<g>
				<polygon style="fill:#ECD3B8;" points="523.91,260.13 521.716,251.469 514.885,247.544 514.982,245.674 517.289,245.7 
					512.552,240.819 512.117,235.315 517.739,230.587 525.324,230.305 529.427,236.385 530.033,245.087 533.55,256.812 				"/>
				<polygon style="fill:#3B455A;" points="518.923,252.921 534.578,307.158 510.523,369.367 536.648,412.356 567.546,325.649 
					536.078,249.867 				"/>
			</g>
			<polygon style="fill:#3B455A;" points="357.848,448.974 396.77,398.046 458.202,364.184 458.19,417.919 404.806,430.736 
				372.174,464.559 			"/>
			<path style="fill:#3B455A;" d="M421.58,524.038c-0.224,10.222,0.098,23.998,4.024,24.502c0.736,0.095,1.441-0.269,2.085-0.62
				c6.791-3.708,11.595-8.926,18.289-12.508c7.016-3.754,15.042-5.749,22.913-7.146c11.77-2.151,23.799-3.484,35.795-3.694
				c10.353-0.18,22.926-0.598,32.932,2.159c7.676,2.878,15.269,5.849,22.848,9.042c-4.299-38.746-11.382-77.183-21.168-114.919
				c-3.746-14.444-4.36-28.675-14.939-39.235c-9.37-9.353-6.891-21.771-32.873-20.563c-45.455,2.114-32.025-1.813-50.806,36.76
				c-4.262,8.754-9.504,32.654-11.046,42.179c-1.868,11.537-3.598,23.097-4.943,34.7c-1.501,12.948-2.532,25.955-2.75,38.983
				C421.916,515.126,421.687,519.181,421.58,524.038z"/>
		</g>
		<g>
			<g>
				<g>
					<path style="fill:#587BC9;" d="M397.752,412.053l-4.882,0.491l-3.41-33.88c-0.398-2.817,0.96-8.719,8.931-11.419l19.584-7.471
						l1.759,4.514l-19.724,7.522c-6.246,2.098-5.695,6.141-5.689,6.182l0.016,0.126L397.752,412.053z"/>
				</g>
				<polygon style="fill:#305399;" points="389.496,379.071 389.593,380.035 394.452,379.31 394.355,378.346 				"/>
				<path style="fill:#305399;" d="M394.393,376.877l-4.798-0.954c-0.071,0.33-0.122,0.65-0.154,0.957l4.863,0.967
					C394.296,377.665,394.3,377.321,394.393,376.877z"/>
				<path style="fill:#305399;" d="M394.941,375.44l-4.167-2.513c-0.17,0.288-0.321,0.575-0.456,0.861l4.222,2.546
					C394.634,376.056,394.763,375.754,394.941,375.44z"/>
				<path style="fill:#305399;" d="M395.937,374.147l-3.054-3.786c-0.249,0.227-0.482,0.457-0.699,0.69l3.106,3.85
					C395.471,374.652,395.685,374.399,395.937,374.147z"/>
				<path style="fill:#305399;" d="M394.9,368.856l1.616,4.773c0.249-0.201,0.528-0.398,0.835-0.591l-1.583-4.676
					C395.465,368.521,395.177,368.686,394.9,368.856z"/>
			</g>
			<path style="fill:#305399;" d="M430.438,506.653l-3.801-95.378l-60.282,6.067l15.724,94.178
				C382.078,511.521,404.781,516.132,430.438,506.653z"/>
			
				<rect x="361.773" y="407.829" transform="matrix(0.995 -0.1001 0.1001 0.995 -39.1747 41.7398)" style="fill:#D7D6D5;" width="68.794" height="6.496"/>
			
				<rect x="363.729" y="403.698" transform="matrix(0.995 -0.1001 0.1001 0.995 -38.6474 41.6607)" style="fill:#E6E5E5;" width="63.815" height="4.158"/>
			<path style="fill:#23457A;" d="M366.354,417.342c0,0,46.844-2.788,60.603,1.98l-0.321-8.048L366.354,417.342z"/>
			<path style="fill:#23457A;" d="M382.078,511.521c0,0,22.703,4.612,48.36-4.867l-2.886-72.416
				C414.817,501.09,382.078,511.521,382.078,511.521z"/>
			<polygon style="fill:#587BC9;" points="430.296,476.962 428.814,436.73 369.294,442.721 376.053,482.421 			"/>
			<path style="fill:#476EB2;" d="M428.814,436.73c0,0-3.052,25.642-18.774,42.27l20.256-2.039L428.814,436.73z"/>
			<polygon style="fill:#1E3C68;" points="377.2,482.306 429.259,477.066 429.429,481.329 			"/>
			<path style="fill:#CDCBCA;" d="M427.176,400.513l0.416,4.137l-29.963,3.016C397.629,407.666,422.857,405.042,427.176,400.513z"/>
		</g>
		<polygon style="fill:#ECD3B8;" points="361.191,444.465 371.209,444.7 374.815,456.74 367.266,467.796 359.359,462.667 
			356.314,450.184 		"/>
	</g>
	<g>
		
			<rect x="562.758" y="115.707" transform="matrix(0.1216 -0.9926 0.9926 0.1216 321.3842 879.3715)" style="fill:#587BC9;" width="189.551" height="284.796"/>
		
			<rect x="654.856" y="4.711" transform="matrix(0.1216 -0.9926 0.9926 0.1216 443.4073 796.1403)" style="fill:#587BC9;" width="33.326" height="285.672"/>
		<g>
			<polygon style="fill:#FFFFFF;" points="777.656,177.338 811.269,181.456 815.322,148.377 814.787,148.312 			"/>
			<polygon style="fill:#FFFFFF;" points="531.77,113.638 528.34,141.633 559.764,117.068 			"/>
			<polygon style="fill:#FFFFFF;" points="610.022,123.225 572.891,152.251 625.015,158.637 662.146,129.611 			"/>
			<polygon style="fill:#FFFFFF;" points="712.405,135.768 675.273,164.794 727.397,171.18 764.529,142.154 			"/>
			<polygon style="fill:#305399;" points="559.764,117.068 528.34,141.633 527.717,146.717 572.891,152.251 610.022,123.225 			"/>
			<polygon style="fill:#305399;" points="662.146,129.611 625.015,158.637 675.273,164.794 712.405,135.768 			"/>
			<polygon style="fill:#305399;" points="764.529,142.154 727.397,171.18 777.656,177.338 814.787,148.312 			"/>
		</g>
		<g>
			<polygon style="fill:#FFFFFF;" points="565.584,109.627 531.955,113.614 528.031,80.52 528.566,80.456 			"/>
			<polygon style="fill:#FFFFFF;" points="811.717,46.885 815.037,74.893 783.709,50.206 			"/>
			<polygon style="fill:#FFFFFF;" points="733.427,56.167 770.445,85.338 718.297,91.521 681.279,62.35 			"/>
			<polygon style="fill:#FFFFFF;" points="630.997,68.312 668.015,97.482 615.866,103.665 578.848,74.494 			"/>
			<polygon style="fill:#305399;" points="783.709,50.206 815.037,74.893 815.64,79.979 770.445,85.338 733.427,56.167 			"/>
			<polygon style="fill:#305399;" points="681.279,62.35 718.297,91.521 668.015,97.482 630.997,68.312 			"/>
			<polygon style="fill:#305399;" points="578.848,74.494 615.866,103.665 565.584,109.627 528.566,80.456 			"/>
		</g>
		<polygon style="fill:#305399;" points="527.717,146.717 528.031,80.569 561.658,76.571 596.047,155.088 		"/>
		<polygon style="fill:#224277;" points="561.658,76.571 586.616,107.133 575.459,108.08 		"/>
		<polygon style="fill:#224277;" points="580.508,119.609 605.97,156.304 596.047,155.088 		"/>
		<g>
			<path style="fill:#FFFFFF;" d="M553.028,94.038c-0.235,2.481-2.437,4.301-4.918,4.066c-2.481-0.235-4.301-2.437-4.066-4.918
				c0.235-2.481,2.437-4.301,4.918-4.066C551.442,89.356,553.263,91.558,553.028,94.038z"/>
			<path style="fill:#FFFFFF;" d="M544.757,133.474c-0.235,2.481-2.437,4.301-4.918,4.066c-2.481-0.235-4.301-2.437-4.066-4.918
				c0.235-2.481,2.437-4.301,4.918-4.066C543.172,128.791,544.992,130.993,544.757,133.474z"/>
			<path style="fill:#FFFFFF;" d="M577.883,136.614c-0.235,2.481-2.437,4.301-4.918,4.066c-2.481-0.235-4.301-2.437-4.066-4.918
				c0.235-2.481,2.437-4.301,4.918-4.066C576.298,131.931,578.119,134.133,577.883,136.614z"/>
		</g>
		
			<rect x="649.918" y="182.919" transform="matrix(0.1216 -0.9926 0.9926 0.1216 261.6578 920.4551)" style="fill:#FFFFFF;" width="1.928" height="258.946"/>
		<g>
			
				<rect x="586.378" y="323.466" transform="matrix(0.1216 -0.9926 0.9926 0.1216 206.7639 882.7007)" style="fill:#FFFFFF;" width="31.454" height="2.127"/>
			
				<rect x="679.559" y="334.882" transform="matrix(0.1216 -0.9926 0.9926 0.1216 277.2825 985.2183)" style="fill:#FFFFFF;" width="31.455" height="2.128"/>
		</g>
		
			<rect x="664.522" y="62.903" transform="matrix(0.1216 -0.9926 0.9926 0.1216 393.6985 829.6287)" style="fill:#FFFFFF;" width="2.128" height="258.946"/>
	</g>
	<g>
		<polygon style="fill:#2C3442;" points="749.497,696.701 749.902,703.596 737.24,720.721 729.177,721.335 725.178,713.56 
			733.313,698.832 745.499,688.926 		"/>
		<polygon style="fill:#2C3442;" points="805.05,701.82 805.454,708.715 792.792,725.84 784.729,726.454 780.731,718.679 
			788.865,703.951 801.051,694.044 		"/>
		<path style="fill:#BCBEC0;" d="M805.461,353.643c0.229,0.053,0.457,0.107,0.683,0.163c10.836,2.669,20.995,18.863,26.846,28.392
			c15.104,24.598,23.538,51.031,27.849,79.571c2.321,15.368,3.936,30.839,5.223,46.33c0.356,4.28,0.899,42.886,3.013,43.578
			c-21.676-7.096-43.636-13.636-66.17-16.572c-22.534-2.937-45.787-2.165-67.349,5.124c0.635-29.488,2.299-58.965,5.341-88.306
			c1.52-14.656,3.385-29.276,5.657-43.835c0.906-5.807,3.993-12.972,0.618-17.96c-3.273-4.837-9.476-8.368-14.965-9.937
			c2.135-1.38,4.88-1.192,7.365-1.727c4.429-0.954,7.971-4.205,12.093-6.087c5.122-2.339,7.461-3.3,10.497-7.827
			c2.958-4.411,7.049-7.009,12.003-8.921C783.92,351.864,795.301,351.305,805.461,353.643z"/>
		<g>
			<path style="fill:#3B455A;" d="M852.651,535.764c0,0,6.016,32.214-12.345,46.708s-34.929,18.773-34.929,18.773l-1.063,101.077
				l-15.071-0.2l-26.829-110.924l34.839-67.641L852.651,535.764z"/>
			<polygon style="fill:#3B455A;" points="755.014,520.408 722.396,587.441 734.813,698.284 748.76,698.028 765.709,587.441 
				805.255,525.706 			"/>
		</g>
		<path style="fill:#FFFDF8;" d="M752.081,524.034c26.267,1.019,79.156,4.834,111.784,16.919
			c-3.895-46.844-32.868-123.186-49.247-167.089c-2.971-7.963-6.99-16.467-14.623-19.83c-8.178-3.604-21.86-0.549-25.558,8.668
			c-5.41,13.485-6.991,33.263-8.445,47.753C762.702,443.239,758.728,490.196,752.081,524.034z"/>
		<g>
			<path style="fill:#ECD3B8;" d="M771.676,322.934c4.212-19.094,28.105-15.058,34.522,0.699c4.195,10.3-2.344,25.142-12.655,29.464
				c0.039,0.473,0.074,0.945,0.087,1.413c0.049,1.96,0.621,3.845-0.719,4.906c-0.702,0.556-3.442,0.322-4.335,0.249
				c-1.801-0.147-3.602-0.293-5.403-0.44c-0.368-0.03-0.782-0.083-1.008-0.376c-0.199-0.257-0.184-0.614-0.161-0.938
				c0.11-1.508,0.219-3.015,0.329-4.523c-0.032-0.011-0.063-0.02-0.095-0.032c-5.526-1.999-9.413-7.286-10.915-12.967
				C769.821,334.709,770.411,328.672,771.676,322.934z"/>
			<g>
				<path style="fill:#3B455A;" d="M770.28,325.949c-2.954,6.32-0.601,13.699,1.484,20.014c1.849,5.6,2.3,9.197-4.129,9.902
					c-3.623,0.397-10.059,1.176-12.84-1.885c-2.105-2.32-0.053-8.487,1.379-10.865c1.094-1.816,3.511-2.522,4.556-4.366
					c0.431-0.76,0.583-1.643,0.696-2.51c0.461-3.539,0.384-7.147-0.228-10.663c-0.416-2.387-1.079-4.762-1.007-7.184
					c0.105-3.512,3.035-7.279,4.699-10.324c3.095-5.665,12.391-12.666,18.855-7.184c1.472,1.248,2.192,3.152,2.765,4.995
					c0.342,1.1,0.656,2.244,0.536,3.39c-0.477,4.57-4.734,4.856-7.864,6.693C775.322,318.227,772.166,321.915,770.28,325.949z"/>
				<path style="fill:#3B455A;" d="M803.291,330.874c-0.115,3.262-2.228,6.658-0.768,9.576c0.651,1.3,1.893,2.179,2.909,3.219
					c2.775,2.841,3.877,7.209,2.782,11.026c6.5,0.503,13,1.006,19.5,1.509c0.98,0.076,2.01,0.144,2.904-0.265
					c1.911-0.874,2.297-3.372,2.423-5.469c0.249-4.13,0.426-8.563-1.756-12.079c-1.012-1.63-2.471-2.946-3.477-4.58
					c-4.839-7.856,2.184-19.846-4.025-26.671c-2.771-3.046-7.219-3.765-10.816-5.768c-6.272-3.494-9.807-10.826-16.292-13.906
					c-12.247-5.815-26.41,8.296-20.173,20.537C781.588,317.987,803.754,317.738,803.291,330.874z"/>
			</g>
		</g>
		<path style="fill:#BCBEC0;" d="M805.254,355.451c0,0,13.955,18.127,19.537,76.738c5.582,58.611,6.699,105.742,6.699,105.742
			s28.468,3.021,32.376,5.438C863.866,543.369,844.328,355.451,805.254,355.451z"/>
		<g>
			<g>
				<polygon style="fill:#BCBEC0;" points="819.839,363.051 859.352,378.288 872.385,322.344 886.233,325.716 887.25,404.101 
					835.498,406.897 				"/>
			</g>
			<polygon style="fill:#EDD3B8;" points="874.846,325.854 884.26,326.668 887.349,311.523 879.569,305.515 871.615,308.384 
				874.586,315.161 872.82,315.009 871.208,313.091 869.29,314.703 			"/>
		</g>
	</g>
	<g>
		<path style="fill:#305399;" d="M673.86,457.683c0.821-1.387,1.296-3.003,1.305-4.73c0.017-3.364-1.737-6.322-4.385-7.996
			c0.096-0.46,0.148-0.936,0.15-1.423c0.02-3.915-3.138-7.104-7.052-7.124c-0.375-0.002-0.742,0.026-1.101,0.08
			c-1.697-3.433-5.224-5.804-9.314-5.825c-2.309-0.012-4.446,0.728-6.181,1.988c0.067-0.443,0.104-0.896,0.106-1.358
			c0.026-5.19-4.16-9.419-9.35-9.445c-3.71-0.019-6.928,2.116-8.472,5.231c-1.978-1.977-4.698-3.205-7.707-3.22
			c-2.194-0.011-4.241,0.624-5.964,1.728c-1.698-2.342-4.45-3.872-7.564-3.888c-3.742-0.019-6.983,2.152-8.511,5.309
			c-0.667-0.212-1.377-0.328-2.114-0.332c-3.914-0.02-7.104,3.138-7.124,7.052c-0.003,0.561,0.062,1.107,0.182,1.631
			c-1.501-1.035-3.319-1.646-5.281-1.656c-5.19-0.026-9.419,4.16-9.445,9.35c-0.007,1.368,0.281,2.669,0.801,3.844
			c-3.682,1.258-6.339,4.736-6.359,8.846c-0.002,0.482,0.032,0.955,0.099,1.417L673.86,457.683z"/>
		<path style="fill:#234884;" d="M673.549,458.174c1.011-1.49,1.607-3.285,1.617-5.221c0.015-2.973-1.354-5.629-3.501-7.362
			c-26.051,10.269-84.055,10.24-84.055,10.24l-0.235,1.908L673.549,458.174z"/>
		<g>
			<path style="fill:#305399;" d="M588.817,459.633l4.981,94.828c2.486,0.368,5.206,0.732,8.122,1.063l-2.819-95.839
				L588.817,459.633z"/>
			<path style="fill:#305399;" d="M626.942,459.825l-0.49,97.173c2.77,0.009,5.594-0.039,8.451-0.156l3.832-96.958L626.942,459.825z
				"/>
			<path style="fill:#305399;" d="M571.386,459.545l6.572,91.957c0,0,2.892,0.718,7.86,1.635l-4.914-93.544L571.386,459.545z"/>
			<path style="fill:#305399;" d="M607.004,459.724l2.841,96.567c2.793,0.223,5.705,0.405,8.709,0.529l0.49-97.035L607.004,459.724z
				"/>
			<path style="fill:#305399;" d="M674.598,460.065l-9.518-0.048l-5.887,93.976c2.826-0.579,5.635-1.255,8.409-2.04L674.598,460.065
				z"/>
			<path style="fill:#305399;" d="M646.638,459.924l-3.81,96.413c2.777-0.243,5.57-0.558,8.363-0.958l5.977-95.402L646.638,459.924z
				"/>
			<path style="fill:#F0EFEF;" d="M619.043,459.785l-0.49,97.035c2.571,0.106,5.21,0.168,7.898,0.177l0.49-97.173L619.043,459.785z"
				/>
			<path style="fill:#F0EFEF;" d="M580.905,459.593l4.914,93.544c2.257,0.417,4.942,0.874,7.979,1.324l-4.981-94.828
				L580.905,459.593z"/>
			<path style="fill:#F0EFEF;" d="M599.1,459.684l2.819,95.839c2.507,0.285,5.158,0.547,7.925,0.768l-2.841-96.567L599.1,459.684z"
				/>
			<path style="fill:#F0EFEF;" d="M657.168,459.977l-5.977,95.402c2.673-0.382,5.344-0.841,8.001-1.386l5.887-93.976
				L657.168,459.977z"/>
			<path style="fill:#F0EFEF;" d="M638.735,459.884l-3.832,96.958c2.618-0.107,5.264-0.272,7.925-0.505l3.81-96.413L638.735,459.884
				z"/>
		</g>
		
			<rect x="569.326" y="456.195" transform="matrix(1 0.005 -0.005 1 2.3182 -3.1367)" style="fill:#E0DFDD;" width="107.35" height="3.61"/>
		<polygon style="fill:#21457F;" points="674.598,460.065 674.27,464.374 607.004,459.724 		"/>
		<g>
			<path style="fill:#21457F;" d="M593.609,550.859l0.189,3.601c2.486,0.368,5.206,0.732,8.122,1.063l-0.162-5.504
				C598.859,550.378,596.123,550.651,593.609,550.859z"/>
			<path style="fill:#21457F;" d="M626.511,545.143l-0.06,11.855c2.77,0.009,5.594-0.039,8.451-0.156l0.577-14.602
				C632.52,543.33,629.516,544.293,626.511,545.143z"/>
			<path style="fill:#21457F;" d="M585.725,551.356c-4.838,0.207-7.767,0.146-7.767,0.146s2.892,0.718,7.86,1.635L585.725,551.356z"
				/>
			<path style="fill:#21457F;" d="M609.626,548.878l0.218,7.413c2.793,0.223,5.705,0.405,8.709,0.529l0.049-9.685
				C615.55,547.817,612.542,548.392,609.626,548.878z"/>
			<path style="fill:#21457F;" d="M660.852,527.505l-1.659,26.489c2.826-0.579,5.635-1.255,8.409-2.04l2.8-36.778
				C667.949,519.864,664.686,523.947,660.852,527.505z"/>
			<path style="fill:#21457F;" d="M643.518,538.884l-0.69,17.453c2.777-0.243,5.57-0.558,8.363-0.958l1.345-21.467
				C649.677,535.756,646.651,537.406,643.518,538.884z"/>
			<path style="fill:#DFDDDD;" d="M618.602,547.136l-0.049,9.685c2.571,0.106,5.21,0.168,7.898,0.177l0.06-11.855
				C623.864,545.891,621.217,546.552,618.602,547.136z"/>
			<path style="fill:#DFDDDD;" d="M585.725,551.356l0.094,1.78c2.257,0.417,4.942,0.874,7.979,1.324l-0.189-3.601
				C590.635,551.105,587.974,551.26,585.725,551.356z"/>
			<path style="fill:#DFDDDD;" d="M601.757,550.019l0.162,5.504c2.507,0.285,5.158,0.547,7.925,0.768l-0.218-7.413
				C606.909,549.332,604.273,549.708,601.757,550.019z"/>
			<path style="fill:#DFDDDD;" d="M652.536,533.912l-1.345,21.467c2.673-0.382,5.344-0.841,8.001-1.386l1.659-26.489
				C658.308,529.865,655.513,531.993,652.536,533.912z"/>
			<path style="fill:#DFDDDD;" d="M635.48,542.24l-0.577,14.602c2.618-0.107,5.264-0.272,7.925-0.505l0.69-17.453
				C640.901,540.119,638.21,541.234,635.48,542.24z"/>
		</g>
	</g>
</g>
</svg>
